<?xml version="1.0" encoding="UTF-8"?>
<svg xmlns="http://www.w3.org/2000/svg" version="1.1" viewBox="0 0 1366 768">
  <defs>
    <style>
      .cls-1, .cls-2, .cls-3, .cls-4, .cls-5, .cls-6, .cls-7, .cls-8 {
        stroke: #000;
        stroke-miterlimit: 10;
      }

      .cls-1, .cls-2, .cls-4, .cls-6, .cls-7, .cls-8 {
        fill: none;
      }

      .cls-2, .cls-8 {
        stroke-width: .75px;
      }

      .cls-9 {
        fill: #fff;
      }

      .cls-10 {
        fill: #070606;
      }

      .cls-4, .cls-6, .cls-7 {
        stroke-width: 2px;
      }

      .cls-5 {
        stroke-width: .5px;
      }

      .cls-6 {
        stroke-dasharray: 9.67 9.67;
      }

      .cls-11 {
        font-size: 18px;
      }

      .cls-11, .cls-12 {
        font-family: TimesNewRomanPSMT, 'Times New Roman';
      }

      .cls-12 {
        font-size: 12.99px;
      }

      .cls-7 {
        stroke-dasharray: 9.65 9.65;
      }

      .cls-8 {
        stroke-dasharray: 3.34 3.34;
      }
    </style>
  </defs>
  <!-- Generator: Adobe Illustrator 28.7.5, SVG Export Plug-In . SVG Version: 1.2.0 Build 176)  -->
  <g>
    <g id="Layer_1">
      <path d="M51,29"/>
      <g>
        <g>
          <g>
            <g>
              <g>
                <rect class="cls-10" x="543.82" y="152.89" width="131.91" height="23.12"/>
                <path d="M675.23,153.39v22.12h-130.91v-22.12h130.91M676.23,152.39h-132.91v24.12h132.91v-24.12h0Z"/>
              </g>
              <g>
                <rect class="cls-9" x="676.73" y="152.89" width="131.91" height="23.12"/>
                <path d="M808.13,153.39v22.12h-130.91v-22.12h130.91M809.13,152.39h-132.91v24.12h132.91v-24.12h0Z"/>
              </g>
            </g>
            <g>
              <g>
                <rect class="cls-10" x="676.73" y="196.79" width="131.91" height="23.12"/>
                <path d="M808.13,197.29v22.12h-130.91v-22.12h130.91M809.13,196.29h-132.91v24.12h132.91v-24.12h0Z"/>
              </g>
              <g>
                <rect class="cls-9" x="543.82" y="196.79" width="131.91" height="23.12"/>
                <path d="M675.23,197.29v22.12h-130.91v-22.12h130.91M676.23,196.29h-132.91v24.12h132.91v-24.12h0Z"/>
              </g>
            </g>
          </g>
          <g>
            <g>
              <g>
                <rect class="cls-10" x="543.82" y="235.74" width="131.91" height="23.11"/>
                <path d="M675.23,236.24v22.12h-130.91v-22.12h130.91M676.23,235.24h-132.91v24.12h132.91v-24.12h0Z"/>
              </g>
              <g>
                <rect class="cls-9" x="676.73" y="235.74" width="131.91" height="23.11"/>
                <path d="M808.13,236.24v22.12h-130.91v-22.12h130.91M809.13,235.24h-132.91v24.12h132.91v-24.12h0Z"/>
              </g>
            </g>
            <g>
              <g>
                <rect class="cls-10" x="676.73" y="279.65" width="131.91" height="23.12"/>
                <path d="M808.13,280.14v22.12h-130.91v-22.12h130.91M809.13,279.14h-132.91v24.12h132.91v-24.12h0Z"/>
              </g>
              <g>
                <rect class="cls-9" x="543.82" y="279.65" width="131.91" height="23.12"/>
                <path d="M675.23,280.14v22.12h-130.91v-22.12h130.91M676.23,279.14h-132.91v24.12h132.91v-24.12h0Z"/>
              </g>
            </g>
          </g>
          <g>
            <polyline class="cls-1" points="543.32 139.25 543.32 329.23 817.12 329.23"/>
            <path d="M543.32,133.22c-1.05,2.84-2.85,6.36-4.76,8.55l4.76-1.72,4.75,1.72c-1.9-2.18-3.7-5.71-4.75-8.55Z"/>
            <path d="M823.16,329.23c-2.84,1.05-6.36,2.85-8.55,4.76l1.72-4.76-1.72-4.75c2.18,1.9,5.71,3.7,8.55,4.75Z"/>
          </g>
          <text class="cls-12" transform="translate(505.94 167.59) scale(.99 1)"><tspan x="0" y="0">0 (RF)</tspan></text>
          <text class="cls-12" transform="translate(505.94 210.26) scale(.99 1)"><tspan x="0" y="0">1 (LF)</tspan></text>
          <text class="cls-12" transform="translate(505.94 251.89) scale(.99 1)"><tspan x="0" y="0">2 (RR)</tspan></text>
          <text class="cls-12" transform="translate(505.94 293.94) scale(.99 1)"><tspan x="0" y="0">4 (LR)</tspan></text>
          <g>
            <line x1="675.62" y1="135.07" x2="675.62" y2="309.44"/>
            <g>
              <line class="cls-4" x1="675.62" y1="135.07" x2="675.62" y2="140.07"/>
              <line class="cls-6" x1="675.62" y1="149.74" x2="675.62" y2="299.61"/>
              <line class="cls-4" x1="675.62" y1="304.44" x2="675.62" y2="309.44"/>
            </g>
          </g>
          <g>
            <text class="cls-12" transform="translate(585.8 347.74) scale(.99 1)"><tspan x="0" y="0">25%P </tspan></text>
            <text class="cls-12" transform="translate(654.79 347.9) scale(.99 1)"><tspan x="0" y="0">50%P </tspan></text>
            <text class="cls-12" transform="translate(718.81 347.9) scale(.99 1)"><tspan x="0" y="0">75%P </tspan></text>
            <text class="cls-12" transform="translate(784.65 347.53) scale(.99 1)"><tspan x="0" y="0">100%P </tspan></text>
          </g>
          <path d="M609.77,309.44"/>
          <line class="cls-3" x1="605.1" y1="329.23" x2="605.2" y2="315.63"/>
          <path d="M742.68,316.86"/>
          <path d="M742.68,329.23"/>
          <path d="M809.13,316.25"/>
          <path d="M809.13,328.61"/>
          <path class="cls-5" d="M676.53,316.86"/>
          <path class="cls-5" d="M676.53,329.23"/>
          <line class="cls-3" x1="808.83" y1="329.23" x2="808.83" y2="315.63"/>
          <line class="cls-3" x1="742.99" y1="329.23" x2="742.99" y2="315.01"/>
          <line class="cls-3" x1="676.53" y1="329.23" x2="676.53" y2="315.63"/>
        </g>
        <g>
          <g>
            <g>
              <rect class="cls-10" x="358.14" y="401.91" width="163.62" height="23.12"/>
              <path d="M521.25,402.41v22.12h-162.62v-22.12h162.62M522.25,401.41h-164.62v24.12h164.62v-24.12h0Z"/>
            </g>
            <g>
              <rect class="cls-9" x="522.75" y="401.91" width="100.2" height="23.12"/>
              <path d="M622.45,402.41v22.12h-99.2v-22.12h99.2M623.45,401.41h-101.2v24.12h101.2v-24.12h0Z"/>
            </g>
            <g>
              <rect class="cls-10" x="489.75" y="445.81" width="133.2" height="23.12"/>
              <path d="M622.45,446.31v22.12h-132.2v-22.12h132.2M623.45,445.31h-134.2v24.12h134.2v-24.12h0Z"/>
            </g>
            <g>
              <rect class="cls-9" x="391.75" y="445.72" width="98" height="23"/>
              <path d="M489.25,446.22v22h-97v-22h97M490.25,445.22h-99v24h99v-24h0Z"/>
            </g>
            <g>
              <rect class="cls-10" x="357.7" y="445.72" width="33.06" height="23"/>
              <path d="M390.25,446.22v22h-32.06v-22h32.06M391.25,445.22h-34.06v24h34.06v-24h0Z"/>
            </g>
          </g>
          <g>
            <polyline class="cls-1" points="357.64 388.27 357.64 578.25 631.44 578.25"/>
            <path d="M357.64,382.24c-1.05,2.84-2.85,6.36-4.76,8.55l4.76-1.72,4.75,1.72c-1.9-2.18-3.7-5.71-4.75-8.55Z"/>
            <path d="M637.47,578.25c-2.84,1.05-6.36,2.85-8.55,4.76l1.72-4.76-1.72-4.75c2.18,1.9,5.71,3.7,8.55,4.75Z"/>
          </g>
          <text class="cls-12" transform="translate(320.26 416.61) scale(.99 1)"><tspan x="0" y="0">0 (RF)</tspan></text>
          <text class="cls-12" transform="translate(320.26 459.28) scale(.99 1)"><tspan x="0" y="0">1 (LF)</tspan></text>
          <text class="cls-12" transform="translate(320.26 500.92) scale(.99 1)"><tspan x="0" y="0">2 (RR)</tspan></text>
          <text class="cls-12" transform="translate(320.26 542.96) scale(.99 1)"><tspan x="0" y="0">4 (LR)</tspan></text>
          <g>
            <line x1="489.94" y1="384.09" x2="489.94" y2="558.47"/>
            <g>
              <line class="cls-4" x1="489.94" y1="384.09" x2="489.94" y2="389.09"/>
              <line class="cls-6" x1="489.94" y1="398.76" x2="489.94" y2="548.63"/>
              <line class="cls-4" x1="489.94" y1="553.47" x2="489.94" y2="558.47"/>
            </g>
          </g>
          <g>
            <text class="cls-12" transform="translate(400.12 596.76) scale(.99 1)"><tspan x="0" y="0">25%P </tspan></text>
            <text class="cls-12" transform="translate(469.11 596.92) scale(.99 1)"><tspan x="0" y="0">50%P </tspan></text>
            <text class="cls-12" transform="translate(533.13 596.92) scale(.99 1)"><tspan x="0" y="0">75%P </tspan></text>
            <text class="cls-12" transform="translate(598.97 596.55) scale(.99 1)"><tspan x="0" y="0">100%P </tspan></text>
          </g>
          <path d="M424.09,558.47"/>
          <line class="cls-3" x1="419.42" y1="578.25" x2="419.52" y2="564.65"/>
          <path d="M557,565.89"/>
          <path d="M557,578.25"/>
          <path d="M623.45,565.27"/>
          <path d="M623.45,577.63"/>
          <path class="cls-5" d="M490.85,565.89"/>
          <path class="cls-5" d="M490.85,578.25"/>
          <line class="cls-3" x1="623.15" y1="578.25" x2="623.15" y2="564.65"/>
          <line class="cls-3" x1="557.3" y1="578.25" x2="557.3" y2="564.03"/>
          <line class="cls-3" x1="490.85" y1="578.25" x2="490.85" y2="564.65"/>
          <g>
            <g>
              <rect class="cls-10" x="358.11" y="486.64" width="163.62" height="23.12"/>
              <path d="M521.22,487.14v22.12h-162.62v-22.12h162.62M522.22,486.14h-164.62v24.12h164.62v-24.12h0Z"/>
            </g>
            <g>
              <rect class="cls-9" x="522.72" y="486.64" width="100.2" height="23.12"/>
              <path d="M622.42,487.14v22.12h-99.2v-22.12h99.2M623.42,486.14h-101.2v24.12h101.2v-24.12h0Z"/>
            </g>
            <g>
              <rect class="cls-10" x="489.72" y="530.55" width="133.2" height="23.11"/>
              <path d="M622.42,531.05v22.12h-132.2v-22.12h132.2M623.42,530.05h-134.2v24.12h134.2v-24.12h0Z"/>
            </g>
            <g>
              <rect class="cls-9" x="391.72" y="530.45" width="98" height="23"/>
              <path d="M489.22,530.95v22h-97v-22h97M490.22,529.95h-99v24h99v-24h0Z"/>
            </g>
            <g>
              <rect class="cls-10" x="357.67" y="530.45" width="33.06" height="23"/>
              <path d="M390.22,530.95v22h-32.06v-22h32.06M391.22,529.95h-34.06v24h34.06v-24h0Z"/>
            </g>
          </g>
          <g>
            <g>
              <line class="cls-9" x1="522.25" y1="425.52" x2="522.25" y2="445.22"/>
              <g>
                <line class="cls-2" x1="522.25" y1="425.52" x2="522.25" y2="427.02"/>
                <line class="cls-8" x1="522.25" y1="430.36" x2="522.25" y2="442.05"/>
                <line class="cls-2" x1="522.25" y1="443.72" x2="522.25" y2="445.22"/>
              </g>
            </g>
            <text class="cls-11" transform="translate(501.78 439.83)"><tspan x="0" y="0">c</tspan></text>
          </g>
          <g>
            <g>
              <line class="cls-9" x1="390.84" y1="425.18" x2="390.84" y2="444.87"/>
              <g>
                <line class="cls-2" x1="390.84" y1="425.18" x2="390.84" y2="426.68"/>
                <line class="cls-8" x1="390.84" y1="430.02" x2="390.84" y2="441.7"/>
                <line class="cls-2" x1="390.84" y1="443.37" x2="390.84" y2="444.87"/>
              </g>
            </g>
            <text class="cls-11" transform="translate(370.37 439.48)"><tspan x="0" y="0">c</tspan></text>
          </g>
        </g>
        <g>
          <g>
            <polyline class="cls-1" points="765.81 388.3 765.81 578.27 1039.61 578.27"/>
            <path d="M765.81,382.26c-1.05,2.84-2.85,6.36-4.76,8.55l4.76-1.72,4.75,1.72c-1.9-2.18-3.7-5.71-4.75-8.55Z"/>
            <path d="M1045.65,578.27c-2.84,1.05-6.36,2.85-8.55,4.76l1.72-4.76-1.72-4.75c2.18,1.9,5.71,3.7,8.55,4.75Z"/>
          </g>
          <text class="cls-12" transform="translate(728.43 416.64) scale(.99 1)"><tspan x="0" y="0">0 (RF)</tspan></text>
          <text class="cls-12" transform="translate(728.43 459.3) scale(.99 1)"><tspan x="0" y="0">1 (LF)</tspan></text>
          <text class="cls-12" transform="translate(728.43 500.94) scale(.99 1)"><tspan x="0" y="0">2 (RR)</tspan></text>
          <text class="cls-12" transform="translate(728.43 542.98) scale(.99 1)"><tspan x="0" y="0">4 (LR)</tspan></text>
          <g>
            <text class="cls-12" transform="translate(808.3 596.78) scale(.99 1)"><tspan x="0" y="0">25%P </tspan></text>
            <text class="cls-12" transform="translate(877.28 596.94) scale(.99 1)"><tspan x="0" y="0">50%P </tspan></text>
            <text class="cls-12" transform="translate(941.3 596.94) scale(.99 1)"><tspan x="0" y="0">75%P </tspan></text>
            <text class="cls-12" transform="translate(1007.14 596.57) scale(.99 1)"><tspan x="0" y="0">100%P </tspan></text>
          </g>
          <path d="M832.26,558.49"/>
          <line class="cls-3" x1="827.6" y1="578.27" x2="827.69" y2="564.67"/>
          <path d="M965.17,565.91"/>
          <path d="M965.17,578.27"/>
          <path d="M1031.63,565.29"/>
          <path d="M1031.63,577.66"/>
          <path class="cls-5" d="M899.02,565.91"/>
          <path class="cls-5" d="M899.02,578.27"/>
          <line class="cls-3" x1="1031.32" y1="578.27" x2="1031.32" y2="564.67"/>
          <line class="cls-3" x1="965.48" y1="578.27" x2="965.48" y2="564.05"/>
          <line class="cls-3" x1="899.02" y1="578.27" x2="899.02" y2="564.67"/>
          <g>
            <g>
              <rect class="cls-10" x="766.31" y="401.9" width="99.44" height="23.08"/>
              <path d="M865.25,402.4v22.08h-98.44v-22.08h98.44M866.25,401.4h-100.44v24.08h100.44v-24.08h0Z"/>
            </g>
            <g>
              <rect class="cls-9" x="866.75" y="401.9" width="164.37" height="23.08"/>
              <path d="M1030.63,402.4v22.08h-163.37v-22.08h163.37M1031.63,401.4h-165.37v24.08h165.37v-24.08h0Z"/>
            </g>
            <g>
              <rect class="cls-10" x="898.75" y="445.74" width="101" height="23.08"/>
              <path d="M999.25,446.24v22.08h-100v-22.08h100M1000.25,445.24h-102v24.08h102v-24.08h0Z"/>
            </g>
            <g>
              <rect class="cls-9" x="765.75" y="445.64" width="132.17" height="22.96"/>
              <path d="M897.43,446.14v21.96h-131.17v-21.96h131.17M898.43,445.14h-133.17v23.96h133.17v-23.96h0Z"/>
            </g>
            <g>
              <line x1="898.11" y1="384.12" x2="898.11" y2="558.22"/>
              <g>
                <line class="cls-4" x1="898.11" y1="384.12" x2="898.11" y2="389.12"/>
                <line class="cls-7" x1="898.11" y1="398.77" x2="898.11" y2="548.39"/>
                <line class="cls-4" x1="898.11" y1="553.22" x2="898.11" y2="558.22"/>
              </g>
            </g>
            <g>
              <rect class="cls-9" x="1000.75" y="445.6" width="30" height="22.96"/>
              <path d="M1030.25,446.1v21.96h-29v-21.96h29M1031.25,445.1h-31v23.96h31v-23.96h0Z"/>
            </g>
          </g>
          <g>
            <rect class="cls-10" x="766.86" y="486.82" width="99.44" height="23.12"/>
            <path d="M865.8,487.32v22.12h-98.44v-22.12h98.44M866.8,486.32h-100.44v24.12h100.44v-24.12h0Z"/>
          </g>
          <g>
            <rect class="cls-9" x="867.3" y="486.82" width="164.37" height="23.12"/>
            <path d="M1031.18,487.32v22.12h-163.37v-22.12h163.37M1032.18,486.32h-165.37v24.12h165.37v-24.12h0Z"/>
          </g>
          <g>
            <rect class="cls-10" x="899.3" y="530.73" width="101" height="23.12"/>
            <path d="M999.8,531.23v22.12h-100v-22.12h100M1000.8,530.23h-102v24.12h102v-24.12h0Z"/>
          </g>
          <g>
            <rect class="cls-9" x="766.3" y="530.63" width="132.17" height="23"/>
            <path d="M897.98,531.13v22h-131.17v-22h131.17M898.98,530.13h-133.17v24h133.17v-24h0Z"/>
          </g>
          <g>
            <rect class="cls-9" x="1001.3" y="530.59" width="30" height="23"/>
            <path d="M1030.8,531.09v22h-29v-22h29M1031.8,530.09h-31v24h31v-24h0Z"/>
          </g>
        </g>
        <g>
          <path d="M585.82,372.54c-.83.64-1.34,1.01-1.56,1.11-.32.15-.65.22-1.01.22-.56,0-1.02-.19-1.38-.57s-.54-.88-.54-1.5c0-.39.09-.73.26-1.02.24-.4.66-.77,1.25-1.12s1.58-.78,2.97-1.28v-.32c0-.8-.13-1.35-.38-1.65s-.63-.45-1.11-.45c-.37,0-.66.1-.88.3-.22.2-.33.43-.33.69l.02.51c0,.27-.07.48-.21.62s-.32.22-.54.22-.39-.08-.53-.23-.21-.36-.21-.62c0-.5.26-.97.77-1.39s1.24-.63,2.17-.63c.71,0,1.3.12,1.76.36.35.18.6.47.76.85.11.25.16.77.16,1.55v2.73c0,.77.01,1.24.04,1.41s.08.29.15.35.15.09.23.09c.09,0,.18-.02.25-.06.12-.08.36-.29.71-.64v.49c-.66.88-1.28,1.32-1.88,1.32-.29,0-.52-.1-.69-.3s-.26-.54-.26-1.02ZM585.82,371.96v-3.07c-.88.35-1.46.6-1.71.75-.46.26-.79.53-.99.81s-.3.59-.3.92c0,.42.13.77.38,1.05s.54.42.87.42c.45,0,1.03-.29,1.76-.88Z"/>
          <path d="M589.09,361.57v-.37c.89.44,1.63.96,2.22,1.56.84.86,1.49,1.86,1.94,3.01s.69,2.35.69,3.6c0,1.82-.45,3.47-1.34,4.97s-2.06,2.57-3.51,3.21v-.33c.72-.4,1.31-.95,1.78-1.64s.81-1.56,1.04-2.63.34-2.17.34-3.33c0-1.25-.1-2.39-.29-3.42-.15-.81-.33-1.46-.55-1.94s-.51-.96-.87-1.41-.84-.88-1.44-1.29Z"/>
          <path d="M609.53,361.5l.27,4.05h-.27c-.36-1.21-.88-2.09-1.56-2.62s-1.48-.8-2.43-.8c-.79,0-1.51.2-2.14.6s-1.14,1.04-1.51,1.92-.55,1.97-.55,3.28c0,1.08.17,2.01.52,2.8s.87,1.4,1.56,1.82,1.49.63,2.38.63c.77,0,1.46-.17,2.05-.5s1.24-.99,1.95-1.97l.27.18c-.6,1.06-1.29,1.84-2.09,2.33s-1.74.74-2.84.74c-1.97,0-3.5-.73-4.59-2.2-.81-1.09-1.21-2.37-1.21-3.85,0-1.19.27-2.28.8-3.28s1.27-1.77,2.2-2.32,1.96-.82,3.06-.82c.86,0,1.71.21,2.55.63.25.13.42.19.53.19.16,0,.3-.06.41-.17.15-.16.26-.38.33-.66h.31Z"/>
          <path d="M615.2,365.41c1.22,0,2.2.46,2.94,1.39.63.79.94,1.7.94,2.72,0,.72-.17,1.45-.52,2.19s-.82,1.29-1.43,1.67-1.28.56-2.03.56c-1.21,0-2.18-.48-2.89-1.45-.6-.81-.91-1.73-.91-2.74,0-.74.18-1.47.55-2.2s.85-1.27,1.45-1.62,1.23-.52,1.9-.52ZM614.93,365.98c-.31,0-.62.09-.94.28s-.57.51-.76.97-.29,1.06-.29,1.78c0,1.17.23,2.18.7,3.03s1.08,1.27,1.84,1.27c.57,0,1.04-.23,1.41-.7s.55-1.27.55-2.42c0-1.43-.31-2.55-.92-3.38-.42-.56-.95-.84-1.59-.84Z"/>
          <path d="M622.65,367.12c.59-.59.93-.92,1.04-1.01.26-.22.55-.4.85-.52s.61-.18.91-.18c.5,0,.94.15,1.3.44s.61.72.73,1.27c.6-.7,1.11-1.16,1.53-1.38s.84-.33,1.28-.33.81.11,1.14.33.59.58.79,1.08c.13.34.19.87.19,1.6v3.46c0,.5.04.85.11,1.04.06.13.17.24.33.33s.42.14.77.14v.32h-3.97v-.32h.17c.35,0,.62-.07.81-.2.13-.09.23-.24.29-.45.02-.1.04-.38.04-.85v-3.46c0-.66-.08-1.12-.24-1.39-.23-.38-.59-.56-1.1-.56-.31,0-.62.08-.94.23s-.69.44-1.14.87l-.02.1.02.38v3.84c0,.55.03.89.09,1.03s.18.25.35.34.46.14.87.14v.32h-4.07v-.32c.45,0,.75-.05.92-.16s.28-.26.35-.47c.03-.1.04-.39.04-.87v-3.46c0-.66-.1-1.13-.29-1.42-.26-.38-.62-.56-1.08-.56-.32,0-.63.08-.94.25-.49.26-.86.55-1.12.87v4.32c0,.53.04.87.11,1.03s.18.28.33.36.44.12.87.12v.32h-3.98v-.32c.37,0,.63-.04.77-.12s.26-.21.33-.38.11-.51.11-1.01v-3.08c0-.88-.03-1.46-.08-1.71-.04-.19-.11-.33-.19-.4s-.21-.11-.36-.11c-.16,0-.36.04-.59.13l-.13-.32,2.43-.98h.38v1.71Z"/>
          <path d="M636.65,367.12c.59-.59.93-.92,1.04-1.01.26-.22.55-.4.85-.52s.61-.18.91-.18c.5,0,.94.15,1.3.44s.61.72.73,1.27c.6-.7,1.11-1.16,1.53-1.38s.84-.33,1.28-.33.81.11,1.14.33.59.58.79,1.08c.13.34.19.87.19,1.6v3.46c0,.5.04.85.11,1.04.06.13.17.24.33.33s.42.14.77.14v.32h-3.97v-.32h.17c.35,0,.62-.07.81-.2.13-.09.23-.24.29-.45.02-.1.04-.38.04-.85v-3.46c0-.66-.08-1.12-.24-1.39-.23-.38-.59-.56-1.1-.56-.31,0-.62.08-.94.23s-.69.44-1.14.87l-.02.1.02.38v3.84c0,.55.03.89.09,1.03s.18.25.35.34.46.14.87.14v.32h-4.07v-.32c.45,0,.75-.05.92-.16s.28-.26.35-.47c.03-.1.04-.39.04-.87v-3.46c0-.66-.1-1.13-.29-1.42-.26-.38-.62-.56-1.08-.56-.32,0-.63.08-.94.25-.49.26-.86.55-1.12.87v4.32c0,.53.04.87.11,1.03s.18.28.33.36.44.12.87.12v.32h-3.98v-.32c.37,0,.63-.04.77-.12s.26-.21.33-.38.11-.51.11-1.01v-3.08c0-.88-.03-1.46-.08-1.71-.04-.19-.11-.33-.19-.4s-.21-.11-.36-.11c-.16,0-.36.04-.59.13l-.13-.32,2.43-.98h.38v1.71Z"/>
          <path d="M652.2,365.41c1.22,0,2.2.46,2.94,1.39.63.79.94,1.7.94,2.72,0,.72-.17,1.45-.52,2.19s-.82,1.29-1.43,1.67-1.28.56-2.03.56c-1.21,0-2.18-.48-2.89-1.45-.6-.81-.91-1.73-.91-2.74,0-.74.18-1.47.55-2.2s.85-1.27,1.45-1.62,1.23-.52,1.9-.52ZM651.93,365.98c-.31,0-.62.09-.94.28s-.57.51-.76.97-.29,1.06-.29,1.78c0,1.17.23,2.18.7,3.03s1.08,1.27,1.84,1.27c.57,0,1.04-.23,1.41-.7s.55-1.27.55-2.42c0-1.43-.31-2.55-.92-3.38-.42-.56-.95-.84-1.59-.84Z"/>
          <path d="M659.61,367.11c.94-1.14,1.84-1.71,2.7-1.71.44,0,.82.11,1.13.33s.57.58.76,1.09c.13.35.19.89.19,1.62v3.44c0,.51.04.86.12,1.04.06.15.17.26.31.34s.41.12.8.12v.32h-3.98v-.32h.17c.38,0,.64-.06.79-.17s.25-.28.31-.51c.02-.09.04-.36.04-.83v-3.3c0-.73-.1-1.26-.29-1.6s-.51-.5-.96-.5c-.7,0-1.39.38-2.08,1.14v4.25c0,.54.03.88.1,1.01.08.17.19.29.34.37s.44.12.87.12v.32h-3.98v-.32h.18c.41,0,.69-.1.83-.31s.22-.6.22-1.19v-2.99c0-.97-.02-1.56-.07-1.77s-.11-.35-.2-.43-.21-.11-.36-.11c-.16,0-.36.04-.59.13l-.13-.32,2.43-.98h.38v1.71Z"/>
          <path d="M680.29,361.78l.13,2.79h-.33c-.06-.49-.15-.84-.26-1.05-.18-.34-.42-.59-.73-.75s-.7-.24-1.19-.24h-1.68v9.11c0,.73.08,1.19.24,1.37.22.25.57.37,1.03.37h.41v.33h-5.05v-.33h.42c.5,0,.86-.15,1.07-.46.13-.19.19-.62.19-1.28v-9.11h-1.43c-.56,0-.95.04-1.19.12-.3.11-.57.33-.78.64s-.35.74-.39,1.28h-.33l.14-2.79h9.73Z"/>
          <path d="M683.16,365.41v1.81c.67-1.21,1.37-1.81,2.07-1.81.32,0,.59.1.8.29s.32.42.32.68c0,.23-.08.42-.23.58s-.33.24-.54.24-.44-.1-.69-.3-.44-.3-.57-.3c-.11,0-.22.06-.34.18-.26.24-.54.64-.82,1.19v3.86c0,.45.06.78.17,1.01.08.16.21.29.4.4s.47.16.84.16v.32h-4.12v-.32c.41,0,.71-.06.91-.19.15-.09.25-.24.31-.45.03-.1.04-.38.04-.85v-3.12c0-.94-.02-1.5-.06-1.67s-.11-.31-.21-.39-.23-.12-.38-.12c-.18,0-.39.04-.62.13l-.09-.32,2.43-.98h.37Z"/>
          <path d="M690.73,365.41c1.22,0,2.2.46,2.94,1.39.63.79.94,1.7.94,2.72,0,.72-.17,1.45-.52,2.19s-.82,1.29-1.43,1.67-1.28.56-2.03.56c-1.21,0-2.18-.48-2.89-1.45-.6-.81-.91-1.73-.91-2.74,0-.74.18-1.47.55-2.2s.85-1.27,1.45-1.62,1.23-.52,1.9-.52ZM690.46,365.98c-.31,0-.62.09-.94.28s-.57.51-.76.97-.29,1.06-.29,1.78c0,1.17.23,2.18.7,3.03s1.08,1.27,1.84,1.27c.57,0,1.04-.23,1.41-.7s.55-1.27.55-2.42c0-1.43-.31-2.55-.92-3.38-.42-.56-.95-.84-1.59-.84Z"/>
          <path d="M698.13,363v2.65h1.88v.62h-1.88v5.22c0,.52.07.87.22,1.05s.34.27.58.27c.19,0,.38-.06.56-.18s.32-.3.42-.53h.34c-.21.57-.5,1.01-.87,1.3s-.76.44-1.16.44c-.27,0-.53-.07-.79-.22s-.45-.36-.57-.64-.18-.71-.18-1.29v-5.41h-1.27v-.29c.32-.13.65-.35.99-.65s.64-.67.9-1.09c.13-.22.32-.63.56-1.22h.27Z"/>
          <path d="M715.78,361.5l.31,3.76h-.31c-.31-.94-.71-1.64-1.2-2.12-.71-.69-1.62-1.03-2.73-1.03-1.52,0-2.67.6-3.46,1.8-.66,1.01-.99,2.22-.99,3.62,0,1.14.22,2.17.66,3.11s1.01,1.62,1.73,2.06,1.44.65,2.19.65c.44,0,.86-.06,1.27-.17s.81-.28,1.19-.49v-3.45c0-.6-.05-.99-.14-1.17s-.23-.33-.42-.42-.53-.15-1.01-.15v-.33h4.61v.33h-.22c-.46,0-.77.15-.94.46-.12.22-.18.64-.18,1.28v3.65c-.67.36-1.34.63-2,.8s-1.39.25-2.19.25c-2.3,0-4.05-.74-5.25-2.21-.9-1.11-1.34-2.38-1.34-3.83,0-1.05.25-2.05.76-3.01.6-1.14,1.42-2.02,2.46-2.64.87-.51,1.9-.76,3.09-.76.43,0,.83.04,1.18.11s.86.23,1.51.47c.33.12.55.18.66.18s.21-.05.29-.15.13-.3.15-.6h.33Z"/>
          <path d="M722.86,372.54c-.83.64-1.34,1.01-1.56,1.11-.32.15-.65.22-1.01.22-.56,0-1.02-.19-1.38-.57s-.54-.88-.54-1.5c0-.39.09-.73.26-1.02.24-.4.66-.77,1.25-1.12s1.58-.78,2.97-1.28v-.32c0-.8-.13-1.35-.38-1.65s-.62-.45-1.11-.45c-.37,0-.66.1-.88.3-.22.2-.33.43-.33.69l.02.51c0,.27-.07.48-.21.62s-.32.22-.54.22-.39-.08-.53-.23-.21-.36-.21-.62c0-.5.26-.97.77-1.39s1.24-.63,2.17-.63c.71,0,1.3.12,1.76.36.35.18.6.47.76.85.11.25.16.77.16,1.55v2.73c0,.77.01,1.24.04,1.41s.08.29.14.35.15.09.23.09c.09,0,.18-.02.25-.06.12-.08.36-.29.71-.64v.49c-.66.88-1.28,1.32-1.88,1.32-.29,0-.52-.1-.69-.3s-.26-.54-.26-1.02ZM722.86,371.96v-3.07c-.88.35-1.46.6-1.71.75-.46.26-.79.53-.99.81s-.3.59-.3.92c0,.42.13.77.38,1.05s.54.42.87.42c.45,0,1.03-.29,1.76-.88Z"/>
          <path d="M729.06,365.41v6.47c0,.5.04.84.11,1.01s.18.29.33.37.41.12.79.12v.32h-3.91v-.32c.39,0,.66-.04.79-.11s.24-.2.32-.38.12-.51.12-1.01v-3.1c0-.87-.03-1.44-.08-1.7-.04-.19-.11-.32-.19-.39s-.21-.11-.36-.11c-.16,0-.36.04-.6.13l-.12-.32,2.43-.98h.39ZM728.33,361.2c.25,0,.46.09.63.26s.26.38.26.63-.09.46-.26.63-.38.26-.63.26-.46-.09-.63-.26-.26-.39-.26-.63.09-.46.26-.63.39-.26.64-.26Z"/>
          <path d="M733.62,363v2.65h1.88v.62h-1.88v5.22c0,.52.07.87.22,1.05s.34.27.58.27c.19,0,.38-.06.56-.18s.32-.3.42-.53h.34c-.21.57-.5,1.01-.87,1.3s-.76.44-1.16.44c-.27,0-.53-.07-.79-.22s-.45-.36-.57-.64-.18-.71-.18-1.29v-5.41h-1.27v-.29c.32-.13.65-.35.99-.65s.64-.67.9-1.09c.13-.22.32-.63.56-1.22h.27Z"/>
        </g>
        <text class="cls-11" transform="translate(423.7 629.26) scale(.94 1)"><tspan x="0" y="0">b) Walking Trot Gait</tspan></text>
        <text class="cls-11" transform="translate(822.03 629.26)"><tspan x="0" y="0">c) Running Trot Gait</tspan></text>
      </g>
    </g>
  </g>
</svg>